<svg xmlns="http://www.w3.org/2000/svg" viewBox="0 0 64 64">
  <defs>
    <linearGradient id="bg" x1="0" y1="0" x2="1" y2="1">
      <stop offset="0%" stop-color="#2f8f5b"/>
      <stop offset="100%" stop-color="#1f6d45"/>
    </linearGradient>
  </defs>
  <rect x="2" y="2" width="60" height="60" rx="14" fill="url(#bg)"/>
  <g transform="translate(14 10)">
    <path d="M8 6h20l-2 30a5 5 0 0 1-5 4H15a5 5 0 0 1-5-4L8 6z" fill="#dbe8e1" opacity=".55"/>
    <path d="M10 8h16l-1.5 24a3.5 3.5 0 0 1-3.5 3H15a3.5 3.5 0 0 1-3.5-3L10 8z" fill="#ffffff"/>
    <ellipse cx="18" cy="8" rx="8" ry="2.6" fill="#ffffff"/>
    <circle cx="24.5" cy="14.5" r="1.8" fill="#dff7ff"/>
    <circle cx="14" cy="19.5" r="1.2" fill="#dff7ff"/>
  </g>
</svg>
